<svg viewBox="0 0 120 120" xmlns="http://www.w3.org/2000/svg"><defs><linearGradient id="gradient" x1="60" y1="120" x2="60" gradientUnits="userSpaceOnUse"><stop offset="0" stop-color="#1d93d2"/><stop offset="1" stop-color="#38b0e3"/></linearGradient></defs><circle cx="60" cy="60" fill="url(#gradient)" style="fill:url(#gradient);stroke-width:0.5" r="60" /><path d="m 40.6145,64.386 7.1185,19.703 c 0,0 0.89,1.8435 1.843,1.8435 0.953,0 15.1275,-14.746 15.1275,-14.746 L 80.466,40.7415 40.8685,59.3 Z" fill="#c8daea"/><path d="m 50.053,69.439 -1.3665,14.523 c 0,0 -0.572,4.45 3.877,0 4.449,-4.45 8.7075,-7.8815 8.7075,-7.8815" fill="#a9c6d8"/><path d="M 40.743,65.089 26.1,60.318 c 0,0 -1.75,-0.71 -1.1865,-2.32 0.116,-0.332 0.35,-0.6145 1.05,-1.1 3.2445,-2.2615 60.053,-22.68 60.053,-22.68 0,0 1.604,-0.5405 2.55,-0.181 a 1.383,1.383 0 0 1 0.9425,1.0275 4.6785,4.6785 0 0 1 0.127,1.2925 c -0.0045,0.376 -0.05,0.7245 -0.0845,1.271 -0.346,5.5825 -10.7,47.2465 -10.7,47.2465 0,0 -0.6195,2.438 -2.839,2.5215 A 4.065,4.065 0 0 1 73.05,86.25 C 68.6945,82.5035 53.6405,72.3865 50.314,70.1615 a 0.635,0.635 0 0 1 -0.273,-0.45 c -0.0465,-0.2345 0.2085,-0.525 0.2085,-0.525 0,0 26.213,-23.3 26.9105,-25.746 0.054,-0.1895 -0.15,-0.283 -0.424,-0.2 -1.741,0.6405 -31.922,19.7 -35.253,21.8035 a 1.605,1.605 0 0 1 -0.74,0.045 z" fill="#ffffff"/></svg>