<svg width="16" height="16" viewBox="0 0 16 16" xmlns="http://www.w3.org/2000/svg">
 <path style="fill:currentColor" d="m8 4.67c1.84 0 3.33 1.49 3.33 3.33 0 0.433-0.0867 0.84-0.24 1.22l1.95 1.95c1.01-0.84 1.8-1.93 2.29-3.17-1.15-2.93-4-5-7.33-5-0.933 0-1.83 0.167-2.65 0.467l1.44 1.44c0.38-0.153 0.787-0.24 1.22-0.24zm-6.67-1.82 1.83 1.83c-1.11 0.86-1.97 2.01-2.49 3.33 1.15 2.93 4 5 7.33 5 1.03 0 2.02-0.2 2.92-0.56l2.23 2.23 0.847-0.847-11.8-11.8zm3.69 3.69 1.03 1.03c-0.0333 0.14-0.0533 0.287-0.0533 0.433 0 1.11 0.893 2 2 2 0.147 0 0.293-0.02 0.433-0.0533l1.03 1.03c-0.447 0.22-0.94 0.353-1.47 0.353-1.84 0-3.33-1.49-3.33-3.33 0-0.527 0.133-1.02 0.353-1.47zm2.87-0.52 2.1 2.1 0.0133-0.107c0-1.11-0.893-2-2-2z"/>
</svg>
