<svg width="16" height="16" version="1.1" viewBox="0 0 16 16" xmlns="http://www.w3.org/2000/svg">
 <path style="fill:currentColor" d="m8 3.012c-3.332 0-6.197 2.066-7.33 4.998 1.133 2.932 3.998 4.998 7.33 4.998s6.197-2.066 7.33-4.998c-1.133-2.932-3.998-4.998-7.33-4.998zm0 8.33c-1.866 0-3.332-1.466-3.332-3.332s1.466-3.332 3.332-3.332 3.332 1.466 3.332 3.332-1.466 3.332-3.332 3.332zm0-5.331c-1.133 0-1.999 0.8663-1.999 1.999s0.8663 1.999 1.999 1.999 1.999-0.8663 1.999-1.999-0.8663-1.999-1.999-1.999z"/>
</svg>
